<mxfile host="app.diagrams.net" modified="2021-03-09T20:00:44.272Z" agent="5.0 (Macintosh; Intel Mac OS X 11_2_1) AppleWebKit/537.36 (KHTML, like Gecko) Chrome/89.0.4389.72 Safari/537.36" etag="NvqecmNMnIHJT4UAy2P9" version="14.4.6" type="github">
  <diagram id="62fMdRWWNldbOo5GsjoV" name="Page-1">
    <mxGraphModel dx="1426" dy="793" grid="1" gridSize="10" guides="1" tooltips="1" connect="1" arrows="1" fold="1" page="1" pageScale="1" pageWidth="850" pageHeight="1100" math="0" shadow="0">
      <root>
        <mxCell id="0" />
        <mxCell id="1" parent="0" />
        <mxCell id="O405kpJJQqSb31X4mPp6-1" value="List of number 1 .. 10" style="rounded=1;whiteSpace=wrap;html=1;" vertex="1" parent="1">
          <mxGeometry x="830" y="80" width="120" height="60" as="geometry" />
        </mxCell>
        <mxCell id="O405kpJJQqSb31X4mPp6-3" value="" style="endArrow=classic;html=1;exitX=0.5;exitY=1;exitDx=0;exitDy=0;" edge="1" parent="1" source="O405kpJJQqSb31X4mPp6-1">
          <mxGeometry width="50" height="50" relative="1" as="geometry">
            <mxPoint x="920" y="420" as="sourcePoint" />
            <mxPoint x="890" y="210" as="targetPoint" />
            <Array as="points" />
          </mxGeometry>
        </mxCell>
        <mxCell id="O405kpJJQqSb31X4mPp6-6" style="edgeStyle=orthogonalEdgeStyle;rounded=0;orthogonalLoop=1;jettySize=auto;html=1;entryX=0.5;entryY=0;entryDx=0;entryDy=0;" edge="1" parent="1" source="O405kpJJQqSb31X4mPp6-4" target="O405kpJJQqSb31X4mPp6-5">
          <mxGeometry relative="1" as="geometry" />
        </mxCell>
        <mxCell id="O405kpJJQqSb31X4mPp6-4" value="get number" style="rounded=0;whiteSpace=wrap;html=1;" vertex="1" parent="1">
          <mxGeometry x="830" y="210" width="120" height="60" as="geometry" />
        </mxCell>
        <mxCell id="O405kpJJQqSb31X4mPp6-9" style="edgeStyle=orthogonalEdgeStyle;rounded=0;orthogonalLoop=1;jettySize=auto;html=1;entryX=0;entryY=0.5;entryDx=0;entryDy=0;" edge="1" parent="1" source="O405kpJJQqSb31X4mPp6-5" target="O405kpJJQqSb31X4mPp6-8">
          <mxGeometry relative="1" as="geometry" />
        </mxCell>
        <mxCell id="O405kpJJQqSb31X4mPp6-5" value="print number" style="rounded=0;whiteSpace=wrap;html=1;" vertex="1" parent="1">
          <mxGeometry x="830" y="340" width="120" height="60" as="geometry" />
        </mxCell>
        <mxCell id="O405kpJJQqSb31X4mPp6-10" style="edgeStyle=orthogonalEdgeStyle;rounded=0;orthogonalLoop=1;jettySize=auto;html=1;entryX=1;entryY=0.5;entryDx=0;entryDy=0;" edge="1" parent="1" source="O405kpJJQqSb31X4mPp6-8" target="O405kpJJQqSb31X4mPp6-4">
          <mxGeometry relative="1" as="geometry">
            <Array as="points">
              <mxPoint x="1060" y="240" />
            </Array>
          </mxGeometry>
        </mxCell>
        <mxCell id="O405kpJJQqSb31X4mPp6-11" value="YES" style="edgeLabel;html=1;align=center;verticalAlign=middle;resizable=0;points=[];" vertex="1" connectable="0" parent="O405kpJJQqSb31X4mPp6-10">
          <mxGeometry x="-0.3429" y="1" relative="1" as="geometry">
            <mxPoint as="offset" />
          </mxGeometry>
        </mxCell>
        <mxCell id="O405kpJJQqSb31X4mPp6-12" style="edgeStyle=orthogonalEdgeStyle;rounded=0;orthogonalLoop=1;jettySize=auto;html=1;" edge="1" parent="1" source="O405kpJJQqSb31X4mPp6-8">
          <mxGeometry relative="1" as="geometry">
            <mxPoint x="1070" y="540" as="targetPoint" />
          </mxGeometry>
        </mxCell>
        <mxCell id="O405kpJJQqSb31X4mPp6-13" value="NO" style="edgeLabel;html=1;align=center;verticalAlign=middle;resizable=0;points=[];" vertex="1" connectable="0" parent="O405kpJJQqSb31X4mPp6-12">
          <mxGeometry x="-0.2" y="-2" relative="1" as="geometry">
            <mxPoint as="offset" />
          </mxGeometry>
        </mxCell>
        <mxCell id="O405kpJJQqSb31X4mPp6-8" value="more numbers exist" style="rounded=0;whiteSpace=wrap;html=1;" vertex="1" parent="1">
          <mxGeometry x="1010" y="340" width="120" height="60" as="geometry" />
        </mxCell>
        <mxCell id="O405kpJJQqSb31X4mPp6-14" value="Exit program" style="rounded=0;whiteSpace=wrap;html=1;" vertex="1" parent="1">
          <mxGeometry x="1020" y="540" width="120" height="60" as="geometry" />
        </mxCell>
        <mxCell id="O405kpJJQqSb31X4mPp6-16" style="edgeStyle=orthogonalEdgeStyle;rounded=0;orthogonalLoop=1;jettySize=auto;html=1;" edge="1" parent="1" source="O405kpJJQqSb31X4mPp6-15">
          <mxGeometry relative="1" as="geometry">
            <mxPoint x="250" y="160" as="targetPoint" />
          </mxGeometry>
        </mxCell>
        <mxCell id="O405kpJJQqSb31X4mPp6-15" value="Print introduction" style="rounded=1;whiteSpace=wrap;html=1;" vertex="1" parent="1">
          <mxGeometry x="190" y="70" width="120" height="60" as="geometry" />
        </mxCell>
        <mxCell id="O405kpJJQqSb31X4mPp6-19" style="edgeStyle=orthogonalEdgeStyle;rounded=0;orthogonalLoop=1;jettySize=auto;html=1;entryX=0.5;entryY=0;entryDx=0;entryDy=0;" edge="1" parent="1" target="O405kpJJQqSb31X4mPp6-18">
          <mxGeometry relative="1" as="geometry">
            <mxPoint x="250" y="220" as="sourcePoint" />
          </mxGeometry>
        </mxCell>
        <mxCell id="O405kpJJQqSb31X4mPp6-22" style="edgeStyle=orthogonalEdgeStyle;rounded=0;orthogonalLoop=1;jettySize=auto;html=1;entryX=0.5;entryY=0;entryDx=0;entryDy=0;" edge="1" parent="1" source="O405kpJJQqSb31X4mPp6-18" target="O405kpJJQqSb31X4mPp6-20">
          <mxGeometry relative="1" as="geometry" />
        </mxCell>
        <mxCell id="O405kpJJQqSb31X4mPp6-18" value="print first question, potential answers, and current score" style="rounded=0;whiteSpace=wrap;html=1;" vertex="1" parent="1">
          <mxGeometry x="190" y="280" width="120" height="60" as="geometry" />
        </mxCell>
        <mxCell id="O405kpJJQqSb31X4mPp6-24" style="edgeStyle=orthogonalEdgeStyle;rounded=0;orthogonalLoop=1;jettySize=auto;html=1;entryX=0.5;entryY=0;entryDx=0;entryDy=0;" edge="1" parent="1" source="O405kpJJQqSb31X4mPp6-20" target="O405kpJJQqSb31X4mPp6-25">
          <mxGeometry relative="1" as="geometry">
            <mxPoint x="370" y="430" as="targetPoint" />
          </mxGeometry>
        </mxCell>
        <mxCell id="O405kpJJQqSb31X4mPp6-20" value="Get answer from player" style="ellipse;whiteSpace=wrap;html=1;" vertex="1" parent="1">
          <mxGeometry x="190" y="390" width="120" height="80" as="geometry" />
        </mxCell>
        <mxCell id="O405kpJJQqSb31X4mPp6-21" style="edgeStyle=orthogonalEdgeStyle;rounded=0;orthogonalLoop=1;jettySize=auto;html=1;exitX=0.5;exitY=1;exitDx=0;exitDy=0;entryX=0.417;entryY=1;entryDx=0;entryDy=0;entryPerimeter=0;" edge="1" parent="1" source="O405kpJJQqSb31X4mPp6-18" target="O405kpJJQqSb31X4mPp6-18">
          <mxGeometry relative="1" as="geometry" />
        </mxCell>
        <mxCell id="O405kpJJQqSb31X4mPp6-23" value="press enter to continue" style="ellipse;whiteSpace=wrap;html=1;" vertex="1" parent="1">
          <mxGeometry x="190" y="160" width="120" height="60" as="geometry" />
        </mxCell>
        <mxCell id="O405kpJJQqSb31X4mPp6-27" value="Answer correct" style="edgeStyle=orthogonalEdgeStyle;rounded=0;orthogonalLoop=1;jettySize=auto;html=1;" edge="1" parent="1" source="O405kpJJQqSb31X4mPp6-25">
          <mxGeometry relative="1" as="geometry">
            <mxPoint x="250" y="660" as="targetPoint" />
            <Array as="points">
              <mxPoint x="250" y="610" />
              <mxPoint x="250" y="610" />
            </Array>
          </mxGeometry>
        </mxCell>
        <mxCell id="O405kpJJQqSb31X4mPp6-28" value="Incorrect" style="edgeStyle=orthogonalEdgeStyle;rounded=0;orthogonalLoop=1;jettySize=auto;html=1;" edge="1" parent="1" source="O405kpJJQqSb31X4mPp6-25">
          <mxGeometry relative="1" as="geometry">
            <mxPoint x="400" y="560" as="targetPoint" />
          </mxGeometry>
        </mxCell>
        <mxCell id="O405kpJJQqSb31X4mPp6-25" value="Check if answer correct" style="rounded=0;whiteSpace=wrap;html=1;" vertex="1" parent="1">
          <mxGeometry x="190" y="530" width="120" height="60" as="geometry" />
        </mxCell>
        <mxCell id="O405kpJJQqSb31X4mPp6-29" value="Gain points and move on" style="rounded=0;whiteSpace=wrap;html=1;" vertex="1" parent="1">
          <mxGeometry x="190" y="660" width="120" height="60" as="geometry" />
        </mxCell>
        <mxCell id="O405kpJJQqSb31X4mPp6-30" value="Deduct points" style="rounded=0;whiteSpace=wrap;html=1;" vertex="1" parent="1">
          <mxGeometry x="400" y="530" width="120" height="60" as="geometry" />
        </mxCell>
      </root>
    </mxGraphModel>
  </diagram>
</mxfile>
